<svg width="155" height="88" viewBox="0 0 155 88" fill="none" xmlns="http://www.w3.org/2000/svg">
<rect width="155" height="88" rx="7" fill="#F7380B"/>
<path d="M5 8C5 6.89543 5.89543 6 7 6H118.684C123.448 6 127.707 6.86857 131.46 8.60571C135.214 10.3429 138.389 12.659 140.988 15.5543C143.586 18.3771 145.571 21.5981 146.943 25.2171C148.314 28.8362 149 32.5638 149 36.4C149 39.6571 148.459 42.8781 147.376 46.0629C146.365 49.2476 144.85 52.1791 142.829 54.8571C140.88 57.5352 138.462 59.8514 135.574 61.8057C133.919 62.9552 132.126 63.9169 130.195 64.6908C128.591 65.3338 128.192 67.5999 129.613 68.5833L143.734 78.3554C145.346 79.4713 144.556 82 142.596 82H105.605C105.104 82 104.621 81.8118 104.252 81.4727L83.4205 62.333C83.0514 61.9939 82.5685 61.8057 82.0673 61.8057H39.5C38.3954 61.8057 37.5 62.7012 37.5 63.8057V80C37.5 81.1046 36.6046 82 35.5 82H7C5.89543 82 5 81.1046 5 80V8ZM39.5 29.3143C38.3954 29.3143 37.5 30.2097 37.5 31.3143V36C37.5 37.1046 38.3954 38 39.5 38H108.309C111.485 38 113.073 36.5524 113.073 33.6571C113.073 30.7619 111.485 29.3143 108.309 29.3143H39.5Z" fill="#1D1D1B"/>
<rect x="5" y="43" width="29" height="39" rx="2" fill="#1D1D1B"/>
<path d="M5 8C5 6.89543 5.89543 6 7 6H82C83.1046 6 84 6.89543 84 8V27.25C84 28.2165 83.2165 29 82.25 29V29C81.2835 29 80.5 29.7835 80.5 30.75V36.25C80.5 37.2165 81.2835 38 82.25 38V38C83.2165 38 84 38.7835 84 39.75V47C84 48.1046 83.1046 49 82 49H7C5.89543 49 5 48.1046 5 47V8Z" fill="#1D1D1B"/>
<path d="M8 10.4998C8 9.67134 8.67158 8.99976 9.50001 8.99976L75.5 8.99999C76.3284 9 77 9.67157 77 10.5V26.211C77 27.0395 76.3284 27.7111 75.5 27.711L35.7335 27.7108C34.905 27.7108 34.2334 28.3824 34.2334 29.2108V38.4998C34.2334 39.3282 34.905 39.9997 35.7334 39.9998L75.5 40C76.3284 40 77 40.6716 77 41.5V57.211C77 58.0395 76.3284 58.711 75.5 58.711L35.7335 58.7108C34.905 58.7108 34.2334 59.3824 34.2334 60.2108V77.4997C34.2334 78.3282 33.5619 78.9997 32.7334 78.9997H9.5C8.67157 78.9997 8 78.3282 8 77.4997V10.4998Z" fill="#F7380B"/>
</svg>
